P2
64 64
255
239 247 255 255 254 255 253 255 252 255 255 254 255 253 255 252 250 241 225 216 200 191 175 167 159 146 141 131 130 124 126 131 131 140 144 157 164 178 193 201 216 224 239 247 255 255 254 255 253 255 252 255 255 254 255 253 255 252 250 241 225 216 212 227 
234 249 254 255 253 255 252 255 255 254 255 253 255 252 255 255 245 236 220 211 195 186 177 162 154 141 136 126 125 126 121 126 126 135 139 152 166 173 188 196 211 219 234 249 254 255 253 255 252 255 255 254 255 253 255 252 255 255 245 236 220 211 207 222 
227 242 249 255 252 255 255 254 255 253 255 252 255 255 254 253 238 229 213 204 195 179 170 155 147 134 129 126 118 119 114 119 119 128 139 145 159 166 181 189 204 219 227 242 249 255 252 255 255 254 255 253 255 252 255 255 254 253 238 229 213 204 207 215 
218 233 240 254 255 254 255 253 255 252 255 255 254 255 252 244 229 220 211 195 186 170 161 146 138 132 120 117 109 110 105 110 117 119 130 136 150 157 172 187 195 210 218 233 240 254 255 254 255 253 255 252 255 255 254 255 252 244 229 220 211 195 198 206 
207 222 236 243 255 253 255 252 255 255 254 255 253 255 241 233 225 209 200 184 175 159 150 142 127 121 109 106 98 99 101 99 106 108 119 125 139 153 161 176 184 199 207 222 236 243 255 253 255 252 255 255 254 255 253 255 241 233 225 209 200 184 187 195 
202 210 224 231 243 247 255 255 254 255 253 255 248 243 236 221 213 197 188 172 163 154 138 130 115 109 97 94 93 87 89 87 94 96 107 120 127 141 149 164 172 187 202 210 224 231 243 247 255 255 254 255 253 255 248 243 236 221 213 197 188 172 175 190 
190 198 212 219 231 242 244 251 249 253 247 246 243 231 224 209 201 185 176 167 151 142 126 118 103 97 92 82 81 75 77 75 82 91 95 108 115 129 137 152 167 175 190 198 212 219 231 242 244 251 249 253 247 246 243 231 224 209 201 185 176 167 163 178 
177 185 199 213 218 229 231 238 236 240 241 233 230 218 211 196 188 179 163 154 138 129 113 105 97 84 79 69 68 62 64 69 69 78 82 95 102 116 131 139 154 162 177 185 199 213 218 229 231 238 236 240 241 233 230 218 211 196 188 179 163 154 150 165 
164 179 186 200 205 216 218 225 230 227 228 220 217 205 198 190 175 166 150 141 125 116 107 92 84 71 66 56 55 56 51 56 56 65 69 82 96 103 118 126 141 149 164 179 186 200 205 216 218 225 230 227 228 220 217 205 198 190 175 166 150 141 137 152 
151 166 173 187 192 203 212 212 217 214 215 207 204 199 185 177 162 153 137 128 119 103 94 79 71 58 53 50 42 43 38 43 43 52 63 69 83 90 105 113 128 143 151 166 173 187 192 203 212 212 217 214 215 207 204 199 185 177 162 153 137 128 131 139 
138 153 160 174 186 190 199 199 204 201 202 201 191 186 172 164 149 140 131 115 106 90 81 66 58 52 40 37 29 30 25 30 37 39 50 56 70 77 92 107 115 130 138 153 160 174 186 190 199 199 204 201 202 201 191 186 172 164 149 140 131 115 118 126 
125 140 154 161 173 177 186 186 191 195 189 188 178 173 159 151 143 127 118 102 93 77 68 60 45 39 27 24 16 17 19 17 24 26 37 43 57 71 79 94 102 117 125 140 154 161 173 177 186 186 191 195 189 188 178 173 159 151 143 127 118 102 105 113 
119 127 141 148 160 164 173 180 178 182 176 175 165 160 153 138 130 114 105 89 80 71 55 47 32 26 14 11 10 4 6 4 11 13 24 37 44 58 66 81 89 104 119 127 141 148 160 164 173 180 178 182 176 175 165 160 153 138 130 114 105 89 92 107 
107 115 129 136 148 159 161 168 166 170 164 163 160 148 141 126 118 102 93 84 68 59 43 35 20 14 9 0 2 0 1 0 0 8 12 25 32 46 54 69 84 92 107 115 129 136 148 159 161 168 166 170 164 163 160 148 141 126 118 102 93 84 80 95 
95 103 117 131 136 147 149 156 154 158 159 151 148 136 129 114 106 97 81 72 56 47 31 23 15 2 2 0 1 0 0 3 0 2 0 13 20 34 49 57 72 80 95 103 117 131 136 147 149 156 154 158 159 151 148 136 129 114 106 97 81 72 68 83 
85 100 107 121 126 137 139 146 151 148 149 141 138 126 119 111 96 87 71 62 46 37 28 13 5 0 1 0 0 3 0 2 0 1 0 3 17 24 39 47 62 70 85 100 107 121 126 137 139 146 151 148 149 141 138 126 119 111 96 87 71 62 58 73 
76 91 98 112 117 128 137 137 142 139 140 132 129 124 110 102 87 78 62 53 44 28 19 4 1 0 0 3 0 2 0 1 0 0 3 0 8 15 30 38 53 68 76 91 98 112 117 128 137 137 142 139 140 132 129 124 110 102 87 78 62 53 56 64 
69 84 91 105 117 121 130 130 135 132 133 132 122 117 103 95 80 71 62 46 37 21 12 0 0 3 0 2 0 1 0 0 3 0 2 0 1 8 23 38 46 61 69 84 91 105 117 121 130 130 135 132 133 132 122 117 103 95 80 71 62 46 49 57 
64 79 93 100 112 116 125 125 130 134 128 127 117 112 98 90 82 66 57 41 32 16 7 3 0 2 0 1 0 0 3 0 2 0 1 0 0 10 18 33 41 56 64 79 93 100 112 116 125 125 130 134 128 127 117 112 98 90 82 66 57 41 44 52 
68 76 90 97 109 113 122 129 127 131 125 124 114 109 102 87 79 63 54 38 29 20 4 2 0 1 0 0 3 0 2 0 1 0 0 3 0 7 15 30 38 53 68 76 90 97 109 113 122 129 127 131 125 124 114 109 102 87 79 63 54 38 41 56 
66 74 88 95 107 118 120 127 125 129 123 122 119 107 100 85 77 61 52 43 27 18 2 1 0 0 3 0 2 0 1 0 0 3 0 2 0 5 13 28 43 51 66 74 88 95 107 118 120 127 125 129 123 122 119 107 100 85 77 61 52 43 39 54 
67 75 89 255 254 255 253 255 252 255 255 123 120 108 101 86 78 69 53 44 28 19 3 0 3 0 2 0 1 0 0 3 0 2 0 1 0 6 21 29 44 52 67 75 89 103 108 119 121 128 126 130 131 123 120 108 101 86 78 69 53 44 40 55 
70 85 92 255 253 255 252 255 255 254 255 126 123 111 104 96 81 72 56 47 31 22 13 0 2 0 1 0 0 3 0 2 0 1 0 0 3 9 24 32 47 55 70 85 92 106 111 122 124 131 136 133 134 126 123 111 104 96 81 72 56 47 43 58 
75 90 97 255 252 255 255 254 255 253 255 131 128 123 109 101 86 77 61 52 43 27 18 3 1 0 0 3 0 2 0 1 0 0 3 0 7 14 29 37 52 67 75 90 97 111 116 127 136 136 141 138 139 131 128 123 109 101 86 77 61 52 55 63 
82 97 104 255 255 254 255 253 255 252 255 145 135 130 116 108 93 84 75 59 50 34 25 10 2 3 0 2 0 1 0 0 3 0 2 0 14 21 36 51 59 74 82 97 104 118 130 134 143 143 148 145 146 145 135 130 116 108 93 84 75 59 62 70 
91 106 120 254 255 253 255 252 255 255 254 154 144 139 125 117 109 93 84 68 59 43 34 26 11 5 0 1 0 0 3 0 2 0 3 9 23 37 45 60 68 83 91 106 120 127 139 143 152 152 157 161 155 154 144 139 125 117 109 93 84 68 71 79 
108 116 130 253 255 252 255 255 254 255 253 164 154 149 142 127 119 103 94 78 69 60 44 36 21 15 3 0 3 0 2 0 1 2 13 26 33 47 55 70 78 93 108 116 130 137 149 153 162 169 167 171 165 164 154 149 142 127 119 103 94 78 81 96 
118 126 140 252 255 255 254 255 253 255 252 174 171 159 152 137 129 113 104 95 79 70 54 46 31 25 20 10 9 3 5 3 10 19 23 36 43 57 65 80 95 103 118 126 140 147 159 170 172 179 177 181 175 174 171 159 152 137 129 113 104 95 91 106 
129 137 151 255 254 255 253 255 252 255 255 185 182 170 163 148 140 131 115 106 90 81 65 57 49 36 31 21 20 14 16 21 21 30 34 47 54 68 83 91 106 114 129 137 151 165 170 181 183 190 188 192 193 185 182 170 163 148 140 131 115 106 102 117 
140 155 162 176 181 192 194 201 206 203 204 196 193 181 174 166 151 142 126 117 101 92 83 68 60 47 42 32 31 32 27 32 32 41 45 58 72 79 94 102 117 125 140 155 162 176 181 192 194 201 206 203 204 196 193 181 174 166 151 142 126 117 113 128 
151 166 173 187 192 203 212 212 217 214 215 207 204 199 185 177 162 153 137 128 119 103 94 79 71 58 53 50 42 43 38 43 43 52 63 69 83 90 105 113 128 143 151 166 173 187 192 203 212 212 217 214 215 207 204 199 185 177 162 153 137 128 131 139 
162 177 184 198 210 214 223 223 228 225 226 225 215 210 196 188 173 164 155 139 130 114 105 90 82 76 64 61 53 54 49 54 61 63 74 80 94 101 116 131 139 154 162 177 184 198 210 214 223 223 228 225 226 225 215 210 196 188 173 164 155 139 142 150 
173 188 202 209 221 225 234 234 239 243 237 236 226 221 207 199 191 175 166 150 141 125 116 108 93 87 75 72 64 65 67 65 72 74 85 91 105 119 127 142 150 165 173 188 202 209 221 225 234 234 239 243 237 236 226 221 207 199 191 175 166 150 153 161 
191 199 213 220 232 236 245 252 250 254 248 247 237 232 225 210 202 186 177 161 152 143 127 119 104 98 86 83 82 76 78 76 83 85 96 109 116 130 138 153 161 176 191 199 213 220 232 236 245 252 250 254 248 247 237 232 225 210 202 186 177 161 164 179 
201 209 223 230 242 253 254 255 253 255 252 255 254 242 235 220 212 196 187 178 162 153 137 129 114 108 103 93 92 86 88 86 93 102 106 119 126 140 148 163 178 186 201 209 223 230 242 253 254 255 253 255 252 255 254 242 235 220 212 196 187 178 174 189 
211 219 233 247 252 255 253 255 252 255 255 254 255 252 245 230 222 213 197 188 172 163 147 139 131 118 113 103 102 96 98 103 103 112 116 129 136 150 165 173 188 196 211 219 233 247 252 255 253 255 252 255 255 254 255 252 245 230 222 213 197 188 184 199 
219 234 241 255 253 255 252 255 255 254 255 253 255 252 253 245 230 221 205 196 180 171 162 147 139 126 121 111 110 111 106 111 111 120 124 137 151 158 173 181 196 204 219 234 241 255 253 255 252 255 255 254 255 253 255 252 253 245 230 221 205 196 192 207 
226 241 248 255 252 255 255 254 255 253 255 252 255 255 254 252 237 228 212 203 194 178 169 154 146 133 128 125 117 118 113 118 118 127 138 144 158 165 180 188 203 218 226 241 248 255 252 255 255 254 255 253 255 252 255 255 254 252 237 228 212 203 206 214 
231 246 252 255 255 254 255 253 255 252 255 255 254 255 253 255 242 233 224 208 199 183 174 159 151 145 133 130 122 123 118 123 130 132 143 149 163 170 185 200 208 223 231 246 252 255 255 254 255 253 255 252 255 255 254 255 253 255 242 233 224 208 211 219 
234 249 255 254 255 253 255 252 255 255 254 255 253 255 252 255 252 236 227 211 202 186 177 169 154 148 136 133 125 126 128 126 133 135 146 152 166 180 188 203 211 226 234 249 255 254 255 253 255 252 255 255 254 255 253 255 252 255 252 236 227 211 214 222 
242 250 255 253 255 252 255 255 254 255 253 255 252 255 255 254 253 237 228 212 203 194 178 170 155 149 137 134 133 127 129 127 134 136 147 160 167 181 189 204 212 227 242 250 255 253 255 252 255 255 254 255 253 255 252 255 255 254 253 237 228 212 215 230 
242 250 255 252 255 255 254 255 253 255 252 255 255 254 255 253 253 237 228 219 203 194 178 170 155 149 144 134 133 127 129 127 134 143 147 160 167 181 189 204 219 227 242 250 255 252 255 255 254 255 253 255 252 255 255 254 255 253 253 237 228 219 215 230 
239 247 255 255 254 255 253 255 252 255 255 254 255 253 255 252 250 241 225 216 200 191 175 167 159 146 141 131 130 124 126 131 131 140 144 157 164 178 193 201 216 224 239 247 255 255 254 255 253 255 252 255 255 254 255 253 255 252 250 241 225 216 212 227 
234 249 254 255 253 255 252 255 255 254 255 253 255 252 255 255 245 236 220 211 195 186 177 162 154 141 136 126 125 126 121 126 126 135 139 152 166 173 188 196 211 219 234 249 254 255 253 255 252 255 255 254 255 253 255 252 255 255 245 236 220 211 207 222 
227 242 249 255 252 255 255 254 255 253 255 252 255 255 254 253 238 229 213 204 195 179 170 155 147 134 129 126 118 119 114 119 119 128 139 145 159 166 181 189 204 219 227 242 249 255 252 255 255 254 255 253 255 252 255 255 254 253 238 229 213 204 207 215 
218 233 240 254 255 254 255 253 255 252 255 255 254 255 252 244 229 220 211 195 186 170 161 146 138 132 120 117 109 110 105 110 117 119 130 136 150 157 172 187 195 210 218 233 240 254 255 254 255 253 255 252 255 255 254 255 252 244 229 220 211 195 198 206 
207 222 236 243 255 253 255 252 255 255 254 255 253 255 241 233 225 209 200 184 175 159 150 142 127 121 109 106 98 99 101 99 106 108 119 125 139 153 161 176 184 199 207 222 236 243 255 253 255 252 255 255 254 255 253 255 241 233 225 209 200 184 187 195 
202 210 224 231 243 247 255 255 254 255 253 255 248 243 236 221 213 197 188 172 163 154 138 130 115 109 97 94 93 87 89 87 94 96 107 120 127 141 149 164 172 187 202 210 224 231 243 247 255 255 254 255 253 255 248 243 236 221 213 197 188 172 175 190 
190 198 212 219 231 242 244 251 249 253 247 246 243 231 224 209 201 185 176 167 151 142 126 118 103 97 92 82 81 75 77 75 200 203 199 202 198 201 137 152 167 175 190 198 212 219 231 242 244 251 249 253 247 246 243 231 224 209 201 185 176 167 163 178 
177 185 199 213 218 229 231 238 236 240 241 233 230 218 211 196 188 179 163 154 138 129 113 105 97 84 79 69 68 62 64 69 199 202 198 201 197 200 131 139 154 162 177 185 199 213 218 229 231 238 236 240 241 233 230 218 211 196 188 179 163 154 150 165 
164 179 186 200 205 216 218 225 230 227 228 220 217 205 198 190 175 166 150 141 125 116 107 92 84 71 66 56 55 56 51 56 198 201 197 200 203 199 118 126 141 149 164 179 186 200 205 216 218 225 230 227 228 220 217 205 198 190 175 166 150 141 137 152 
151 166 173 187 192 203 212 212 217 214 215 207 204 199 185 177 162 153 137 128 119 103 94 79 71 58 53 50 42 43 38 43 197 200 203 199 202 198 105 113 128 143 151 166 173 187 192 203 212 212 217 214 215 207 204 199 185 177 162 153 137 128 131 139 
138 153 160 174 186 190 199 199 204 201 202 201 191 186 172 164 149 140 131 115 106 90 81 66 58 52 40 37 29 30 25 30 203 199 202 198 201 197 92 107 115 130 138 153 160 174 186 190 199 199 204 201 202 201 191 186 172 164 149 140 131 115 118 126 
125 140 154 161 173 177 186 186 191 195 189 188 178 173 159 151 143 127 118 102 93 77 68 60 45 39 27 24 16 17 19 17 202 198 201 197 200 203 79 94 102 117 125 140 154 161 173 177 186 186 191 195 189 188 178 173 159 151 143 127 118 102 105 113 
119 127 141 148 160 164 173 180 178 182 176 175 165 160 153 138 130 114 105 89 80 71 55 47 32 26 14 11 10 4 6 4 11 13 24 37 44 58 66 81 89 104 119 127 141 148 160 164 173 180 178 182 176 175 165 160 153 138 130 114 105 89 92 107 
107 115 129 136 148 159 161 168 166 170 164 163 160 148 141 126 118 102 93 84 68 59 43 35 20 14 9 0 2 0 1 0 0 8 12 25 32 46 54 69 84 92 107 115 129 136 148 159 161 168 166 170 164 163 160 148 141 126 118 102 93 84 80 95 
95 103 117 131 136 147 149 156 154 158 159 151 148 136 129 114 106 97 81 72 56 47 31 23 15 2 2 0 1 0 0 3 0 2 0 13 20 34 49 57 72 80 95 103 117 131 136 147 149 156 154 158 159 151 148 136 129 114 106 97 81 72 68 83 
85 100 107 121 126 137 139 146 151 148 149 141 138 126 119 111 96 87 71 62 46 37 28 13 5 0 1 0 0 3 0 2 0 1 0 3 17 24 39 47 62 70 85 100 107 121 126 137 139 146 151 148 149 141 138 126 119 111 96 87 71 62 58 73 
76 91 98 112 117 128 137 137 142 139 140 132 129 124 110 102 87 78 62 53 44 28 19 4 1 0 0 3 0 2 0 1 0 0 3 0 8 15 30 38 53 68 76 91 98 112 117 128 137 137 142 139 140 132 129 124 110 102 87 78 62 53 56 64 
69 84 91 105 117 121 130 130 135 132 133 132 122 117 103 95 80 71 62 46 37 21 12 0 0 3 0 2 0 1 0 0 3 0 2 0 1 8 23 38 46 61 69 84 91 105 117 121 130 130 135 132 133 132 122 117 103 95 80 71 62 46 49 57 
64 79 93 100 112 116 125 125 130 134 128 127 117 112 98 90 82 66 57 41 32 16 7 3 0 2 0 1 0 0 3 0 2 0 1 0 0 10 18 33 41 56 64 79 93 100 112 116 125 125 130 134 128 127 117 112 98 90 82 66 57 41 44 52 
68 76 90 97 109 113 122 129 127 131 125 124 114 109 102 87 79 63 54 38 29 20 4 2 0 1 0 0 3 0 2 0 1 0 0 3 0 7 15 30 38 53 68 76 90 97 109 113 122 129 127 131 125 124 114 109 102 87 79 63 54 38 41 56 
66 74 88 95 107 118 120 127 125 129 123 122 119 107 100 85 77 61 52 43 27 18 2 1 0 0 3 0 2 0 1 0 0 3 0 2 0 5 13 28 43 51 66 74 88 95 107 118 120 127 125 129 123 122 119 107 100 85 77 61 52 43 39 54 
241 249 255 255 254 255 253 255 252 255 255 254 255 253 255 252 252 243 227 218 202 193 177 169 161 148 143 133 132 126 128 133 133 142 146 159 166 180 195 203 218 226 241 249 255 255 254 255 253 255 252 255 255 254 255 253 255 252 252 243 227 218 214 229 
