P2
64 64
255
254 255 253 255 252 255 255 254 255 241 233 217 208 199 183 174 158 150 135 129 124 114 113 107 109 107 114 123 127 140 147 161 169 184 199 207 222 230 244 251 255 255 254 255 253 255 252 255 255 254 255 241 233 217 208 199 195 210 218 233 240 254 255 254 
253 255 252 255 255 254 255 252 245 230 222 213 197 188 172 163 147 139 131 118 113 103 102 96 98 103 103 112 116 129 136 150 165 173 188 196 211 219 233 247 252 255 253 255 252 255 255 254 255 252 245 230 222 213 197 188 184 199 207 222 236 243 255 253 
252 255 255 254 255 253 252 240 233 225 210 201 185 176 160 151 142 127 119 106 101 91 90 91 86 91 91 100 104 117 131 138 153 161 176 184 199 214 221 235 240 251 252 255 255 254 255 253 252 240 233 225 210 201 185 176 172 187 202 210 224 231 243 247 
248 248 253 250 251 243 240 235 221 213 198 189 173 164 155 139 130 115 107 94 89 86 78 79 74 79 79 88 99 105 119 126 141 149 164 179 187 202 209 223 228 239 248 248 253 250 251 243 240 235 221 213 198 189 173 164 167 175 190 198 212 219 231 242 
235 235 240 237 238 237 227 222 208 200 185 176 167 151 142 126 117 102 94 88 76 73 65 66 61 66 73 75 86 92 106 113 128 143 151 166 174 189 196 210 222 226 235 235 240 237 238 237 227 222 208 200 185 176 167 151 154 162 177 185 199 213 218 229 
222 222 227 231 225 224 214 209 195 187 179 163 154 138 129 113 104 96 81 75 63 60 52 53 55 53 60 62 73 79 93 107 115 130 138 153 161 176 190 197 209 213 222 222 227 231 225 224 214 209 195 187 179 163 154 138 141 149 164 179 186 200 205 216 
209 216 214 218 212 211 201 196 189 174 166 150 141 125 116 107 91 83 68 62 50 47 46 40 42 40 47 49 60 73 80 94 102 117 125 140 155 163 177 184 196 200 209 216 214 218 212 211 201 196 189 174 166 150 141 125 128 143 151 166 173 187 192 203 
196 203 201 205 199 198 195 183 176 161 153 137 128 119 103 94 78 70 55 49 44 34 33 27 29 27 34 43 47 60 67 81 89 104 119 127 142 150 164 171 183 194 196 203 201 205 199 198 195 183 176 161 153 137 128 119 115 130 138 153 160 174 186 190 
183 190 188 192 193 185 182 170 163 148 140 131 115 106 90 81 65 57 49 36 31 21 20 14 16 21 21 30 34 47 54 68 83 91 106 114 129 137 151 165 170 181 183 190 188 192 193 185 182 170 163 148 140 131 115 106 102 117 125 140 154 161 173 177 
170 177 182 179 180 172 169 157 150 142 127 118 102 93 77 68 59 44 36 23 18 8 7 8 3 8 8 17 21 34 48 55 70 78 93 101 116 131 138 152 157 168 170 177 182 179 180 172 169 157 150 142 127 118 102 93 89 104 119 127 141 148 160 164 
165 165 170 167 168 160 157 152 138 130 115 106 90 81 72 56 47 32 24 11 6 3 0 2 0 1 0 5 16 22 36 43 58 66 81 96 104 119 126 140 145 156 165 165 170 167 168 160 157 152 138 130 115 106 90 81 84 92 107 115 129 136 148 159 
153 153 158 155 156 155 145 140 126 118 103 94 85 69 60 44 35 20 12 6 0 2 0 1 0 0 3 0 4 10 24 31 46 61 69 84 92 107 114 128 140 144 153 153 158 155 156 155 145 140 126 118 103 94 85 69 72 80 95 103 117 131 136 147 
143 143 148 152 146 145 135 130 116 108 100 84 75 59 50 34 25 17 2 2 0 1 0 0 3 0 2 0 1 0 14 28 36 51 59 74 82 97 111 118 130 134 143 143 148 152 146 145 135 130 116 108 100 84 75 59 62 70 85 100 107 121 126 137 
134 141 139 143 137 136 126 121 114 99 91 75 66 50 41 32 16 8 0 1 0 0 3 0 2 0 1 0 0 3 5 19 27 42 50 65 80 88 102 109 121 125 134 141 139 143 137 136 126 121 114 99 91 75 66 50 53 68 76 91 98 112 117 128 
127 134 132 136 130 129 126 114 107 92 84 68 59 50 34 25 9 1 0 0 3 0 2 0 1 0 0 3 0 2 0 12 20 35 50 58 73 81 95 102 114 125 127 134 132 136 130 129 126 114 107 92 84 68 59 50 46 61 69 84 91 105 117 121 
122 129 127 131 132 124 121 109 102 87 79 70 54 45 29 20 4 0 3 0 2 0 1 0 0 3 0 2 0 1 0 7 22 30 45 53 68 76 90 104 109 120 122 129 127 131 132 124 121 109 102 87 79 70 54 45 41 56 64 79 93 100 112 116 
119 126 131 128 129 121 118 106 99 91 76 67 51 42 26 17 8 0 2 0 1 0 0 3 0 2 0 1 0 0 3 4 19 27 42 50 65 80 87 101 106 117 119 126 131 128 129 121 118 106 99 91 76 67 51 42 38 53 68 76 90 97 109 113 
124 124 129 126 127 119 116 111 97 89 74 65 49 40 31 15 6 0 1 0 0 3 0 2 0 1 0 0 3 0 2 2 17 25 40 55 63 78 85 99 104 115 124 124 129 126 127 119 116 111 97 89 74 65 49 40 43 51 66 74 88 95 107 118 
125 125 130 127 128 127 117 112 98 90 75 66 57 41 32 16 7 0 0 3 0 2 0 1 0 0 3 0 2 0 1 3 18 33 41 56 64 79 86 100 112 116 125 125 130 127 128 127 117 112 98 90 75 66 57 41 44 52 67 75 89 103 108 119 
128 128 133 137 131 130 120 115 101 93 85 69 60 44 35 19 10 3 0 2 0 1 0 0 3 0 2 0 1 0 0 13 21 36 44 59 67 82 96 103 115 119 128 128 133 137 131 130 120 115 101 93 85 69 60 44 47 55 70 85 92 106 111 122 
133 140 138 142 136 135 125 120 113 98 90 74 65 49 40 31 15 7 0 1 0 0 3 0 2 0 1 0 0 3 4 18 26 41 49 64 79 87 101 108 120 124 133 140 138 142 136 135 125 120 113 98 90 74 65 49 52 67 75 90 97 111 116 127 
140 147 145 149 143 142 139 127 120 105 97 81 255 255 254 255 253 255 252 255 3 0 2 0 1 0 0 3 0 4 11 25 33 48 63 71 86 94 108 115 127 138 140 147 145 149 143 142 139 127 120 105 97 81 72 63 59 74 82 97 104 118 130 134 
149 156 154 158 159 151 148 136 129 114 106 97 254 255 253 255 252 255 255 254 2 0 1 0 0 3 0 2 0 13 20 34 49 57 72 80 95 103 117 131 136 147 149 156 154 158 159 151 148 136 129 114 106 97 81 72 68 83 91 106 120 127 139 143 
159 166 171 168 169 161 158 146 139 131 116 107 253 255 252 255 255 254 255 253 7 0 0 3 0 2 0 6 10 23 37 44 202 198 201 197 200 203 127 141 146 157 159 166 171 168 169 161 158 146 139 131 116 107 91 82 78 93 108 116 130 137 149 153 
176 176 181 178 179 171 168 163 149 141 126 117 252 255 255 254 255 253 255 252 17 14 6 7 2 7 7 16 27 33 47 54 201 197 200 203 199 202 137 151 156 167 176 176 181 178 179 171 168 163 149 141 126 117 101 92 95 103 118 126 140 147 159 170 
187 187 192 189 190 189 179 174 160 152 137 128 255 254 255 253 255 252 255 255 28 25 17 18 13 18 25 27 38 44 58 65 200 203 199 202 198 201 148 162 174 178 187 187 192 189 190 189 179 174 160 152 137 128 119 103 106 114 129 137 151 165 170 181 
198 198 203 207 201 200 190 185 171 163 155 139 255 253 255 252 255 255 254 255 39 36 28 29 31 29 36 38 49 55 69 83 199 202 198 201 197 200 166 173 185 189 198 198 203 207 201 200 190 185 171 163 155 139 130 114 117 125 140 155 162 176 181 192 
209 216 214 218 212 211 201 196 189 174 166 150 255 252 255 255 254 255 253 255 50 47 46 40 42 40 47 49 60 73 80 94 198 201 197 200 203 199 177 184 196 200 209 216 214 218 212 211 201 196 189 174 166 150 141 125 128 143 151 166 173 187 192 203 
220 227 225 229 223 222 219 207 200 185 177 161 255 255 254 255 253 255 252 255 68 58 57 51 53 51 58 67 71 84 91 105 197 200 203 199 202 198 188 195 207 218 220 227 225 229 223 222 219 207 200 185 177 161 152 143 139 154 162 177 184 198 210 214 
231 238 236 240 241 233 230 218 211 196 188 179 163 154 138 129 113 105 97 84 79 69 68 62 64 69 69 78 82 95 102 116 131 139 154 162 177 185 199 213 218 229 231 238 236 240 241 233 230 218 211 196 188 179 163 154 150 165 173 188 202 209 221 225 
242 249 254 251 252 244 241 229 222 214 199 190 174 165 149 140 131 116 108 95 90 80 79 80 75 80 80 89 93 106 120 127 142 150 165 173 188 203 210 224 229 240 242 249 254 251 252 244 241 229 222 214 199 190 174 165 161 176 191 199 213 220 232 236 
255 254 255 253 255 252 251 246 232 224 209 200 184 175 166 150 141 126 118 105 100 97 89 90 85 90 90 99 110 116 130 137 152 160 175 190 198 213 220 234 239 250 255 254 255 253 255 252 251 246 232 224 209 200 184 175 178 186 201 209 223 230 242 253 
255 253 255 252 255 255 254 255 242 234 219 210 201 185 176 160 151 136 128 122 110 107 99 100 95 100 107 109 120 126 140 147 162 177 185 200 208 223 230 244 255 254 255 253 255 252 255 255 254 255 242 234 219 210 201 185 188 196 211 219 233 247 252 255 
255 252 255 255 254 255 253 255 250 242 234 218 209 193 184 168 159 151 136 130 118 115 107 108 110 108 115 117 128 134 148 162 170 185 193 208 216 231 245 252 255 253 255 252 255 255 254 255 253 255 250 242 234 218 209 193 196 204 219 234 241 255 253 255 
255 255 254 255 253 255 252 255 255 249 241 225 216 200 191 182 166 158 143 137 125 122 121 115 117 115 122 124 135 148 155 169 177 192 200 215 230 238 252 253 255 252 255 255 254 255 253 255 252 255 255 249 241 225 216 200 203 218 226 241 248 255 252 255 
254 255 253 255 252 255 255 254 255 253 246 230 221 212 196 187 171 163 148 142 137 127 126 120 122 120 127 136 140 153 160 174 182 197 212 220 235 243 255 252 255 255 254 255 253 255 252 255 255 254 255 253 246 230 221 212 208 223 231 246 252 255 255 254 
253 255 252 255 255 254 255 253 255 252 249 240 224 215 199 190 174 166 158 145 140 130 129 123 125 130 130 139 143 156 163 177 192 200 215 223 238 246 255 255 254 255 253 255 252 255 255 254 255 253 255 252 249 240 224 215 211 226 234 249 255 254 255 253 
252 255 255 254 255 253 255 252 255 255 250 241 225 216 200 191 182 167 159 146 141 131 130 131 126 131 131 140 144 157 171 178 193 201 216 224 239 254 254 255 253 255 252 255 255 254 255 253 255 252 255 255 250 241 225 216 212 227 242 250 255 253 255 252 
255 254 255 253 255 252 255 255 254 255 250 241 225 216 207 191 182 167 159 146 141 138 130 131 126 131 131 140 151 157 171 178 193 201 216 231 239 254 253 255 252 255 255 254 255 253 255 252 255 255 254 255 250 241 225 216 219 227 242 250 255 252 255 255 
255 253 255 252 255 255 254 255 253 255 247 238 229 213 204 188 179 164 156 150 138 135 127 128 123 128 135 137 148 154 168 175 190 205 213 228 236 251 252 255 255 254 255 253 255 252 255 255 254 255 253 255 247 238 229 213 216 224 239 247 255 255 254 255 
255 252 255 255 254 255 253 255 252 255 249 233 224 208 199 183 174 166 151 145 133 130 122 123 125 123 130 132 143 149 163 177 185 200 208 223 231 246 255 254 255 253 255 252 255 255 254 255 253 255 252 255 249 233 224 208 211 219 234 249 254 255 253 255 
255 255 254 255 253 255 252 255 255 250 242 226 217 201 192 183 167 159 144 138 126 123 122 116 118 116 123 125 136 149 156 170 178 193 201 216 231 239 253 253 255 252 255 255 254 255 253 255 252 255 255 250 242 226 217 201 204 219 227 242 249 255 252 255 
254 255 253 255 252 255 255 254 255 241 233 217 208 199 183 174 158 150 135 129 124 114 113 107 109 107 114 123 127 140 147 161 169 184 199 207 222 230 244 251 255 255 254 255 253 255 252 255 255 254 255 241 233 217 208 199 195 210 218 233 240 254 255 254 
253 255 252 255 255 254 255 252 245 230 222 213 197 188 172 163 147 139 131 118 113 103 102 96 98 103 103 112 116 129 136 150 165 173 188 196 211 219 233 247 252 255 253 255 252 255 255 254 255 252 245 230 222 213 197 188 184 199 207 222 236 243 255 253 
252 255 255 254 255 253 252 240 233 225 210 201 185 176 160 151 142 127 119 106 101 91 90 91 86 91 91 100 104 117 131 138 153 161 176 184 199 214 221 235 240 251 252 255 255 254 255 253 252 240 233 225 210 201 185 176 172 187 202 210 224 231 243 247 
248 248 253 250 251 243 240 235 221 213 198 189 173 164 155 139 130 115 107 94 89 86 78 79 74 79 79 88 99 105 119 126 141 149 164 179 187 202 209 223 228 239 248 248 253 250 251 243 240 235 221 213 198 189 173 164 167 175 190 198 212 219 231 242 
235 235 240 237 238 237 227 222 208 200 185 176 167 151 142 126 117 102 94 88 76 73 65 66 61 66 73 75 86 92 106 113 128 143 151 166 174 189 196 210 222 226 235 235 240 237 238 237 227 222 208 200 185 176 167 151 154 162 177 185 199 213 218 229 
222 222 227 231 225 224 214 209 195 187 179 163 154 138 129 113 104 96 81 75 63 60 52 53 55 53 60 62 73 79 93 107 115 130 138 153 161 176 190 197 209 213 222 222 227 231 225 224 214 209 195 187 179 163 154 138 141 149 164 179 186 200 205 216 
209 216 214 218 212 211 201 196 189 174 166 150 141 125 116 107 91 83 68 62 50 47 46 40 42 40 47 49 60 73 80 94 102 117 125 140 155 163 177 184 196 200 209 216 214 218 212 211 201 196 189 174 166 150 141 125 128 143 151 166 173 187 192 203 
196 203 201 205 199 198 195 183 176 161 153 137 128 119 103 94 78 70 55 49 44 34 33 27 29 27 34 43 47 60 67 81 89 104 119 127 142 150 164 171 183 194 196 203 201 205 199 198 195 183 176 161 153 137 128 119 115 130 138 153 160 174 186 190 
183 190 188 192 193 185 182 170 163 148 140 131 115 106 90 81 65 57 49 36 31 21 20 14 16 21 21 30 34 47 54 68 83 91 106 114 129 137 151 165 170 181 183 190 188 192 193 185 182 170 163 148 140 131 115 106 102 117 125 140 154 161 173 177 
170 177 182 179 180 172 169 157 150 142 127 118 102 93 77 68 59 44 36 23 18 8 7 8 3 8 8 17 21 34 48 55 70 78 93 101 116 131 138 152 157 168 170 177 182 179 180 172 169 157 150 142 127 118 102 93 89 104 119 127 141 148 160 164 
165 165 170 167 168 160 157 152 138 130 115 106 90 81 72 56 47 32 24 11 6 3 0 2 0 1 0 5 16 22 36 43 58 66 81 96 104 119 126 140 145 156 165 165 170 167 168 160 157 152 138 130 115 106 90 81 84 92 107 115 129 136 148 159 
153 153 158 155 156 155 145 140 126 118 103 94 85 69 60 44 35 20 12 6 0 2 0 1 0 0 3 0 4 10 24 31 46 61 69 84 92 107 114 128 140 144 153 153 158 155 156 155 145 140 126 118 103 94 85 69 72 80 95 103 117 131 136 147 
143 143 148 152 146 145 135 130 116 108 100 84 75 59 50 34 25 17 2 2 0 1 0 0 3 0 2 0 1 0 14 28 36 51 59 74 82 97 111 118 130 134 143 143 148 152 146 145 135 130 116 108 100 84 75 59 62 70 85 100 107 121 126 137 
134 141 139 143 137 136 126 121 114 99 91 75 66 50 41 32 16 8 0 1 0 0 3 0 2 0 1 0 0 3 5 19 27 42 50 65 80 88 102 109 121 125 134 141 139 143 137 136 126 121 114 99 91 75 66 50 53 68 76 91 98 112 117 128 
127 134 132 136 130 129 126 114 107 92 84 68 59 50 34 25 9 1 0 0 3 0 2 0 1 0 0 3 0 2 0 12 20 35 50 58 73 81 95 102 114 125 127 134 132 136 130 129 126 114 107 92 84 68 59 50 46 61 69 84 91 105 117 121 
122 129 127 131 132 124 121 109 102 87 79 70 54 45 29 20 4 0 3 0 2 0 1 0 0 3 0 2 0 1 0 7 22 30 45 53 68 76 90 104 109 120 122 129 127 131 132 124 121 109 102 87 79 70 54 45 41 56 64 79 93 100 112 116 
119 126 131 128 129 121 118 106 99 91 76 67 51 42 26 17 8 0 2 0 1 0 0 3 0 2 0 1 0 0 3 4 19 27 42 50 65 80 87 101 106 117 119 126 131 128 129 121 118 106 99 91 76 67 51 42 38 53 68 76 90 97 109 113 
124 124 129 126 127 119 116 111 97 89 74 65 49 40 31 15 6 0 1 0 0 3 0 2 0 1 0 0 3 0 2 2 17 25 40 55 63 78 85 99 104 115 124 124 129 126 127 119 116 111 97 89 74 65 49 40 43 51 66 74 88 95 107 118 
255 253 255 252 255 255 254 255 253 255 249 240 231 215 206 190 181 166 158 152 140 137 129 130 125 130 137 139 150 156 170 177 192 207 215 230 238 253 252 255 255 254 255 253 255 252 255 255 254 255 253 255 249 240 231 215 218 226 241 249 255 255 254 255 
255 252 255 255 254 255 253 255 252 255 253 237 228 212 203 187 178 170 155 149 137 134 126 127 129 127 134 136 147 153 167 181 189 204 212 227 235 250 255 254 255 253 255 252 255 255 254 255 253 255 252 255 253 237 228 212 215 223 238 253 254 255 253 255 
255 255 254 255 253 255 252 255 255 254 248 232 223 207 198 189 173 165 150 144 132 129 128 122 124 122 129 131 142 155 162 176 184 199 207 222 237 245 255 253 255 252 255 255 254 255 253 255 252 255 255 254 248 232 223 207 210 225 233 248 253 255 252 255 
254 255 253 255 252 255 255 254 255 249 241 225 216 207 191 182 166 158 143 137 132 122 121 115 117 115 122 131 135 148 155 169 177 192 207 215 230 238 252 252 255 255 254 255 253 255 252 255 255 254 255 249 241 225 216 207 203 218 226 241 248 255 255 254 
