P2
64 64
255
255 253 255 252 255 255 254 255 253 255 252 251 243 227 218 202 193 177 168 160 145 139 127 124 116 117 119 117 124 126 137 143 157 171 179 194 202 217 225 240 254 254 255 253 255 252 255 255 254 255 253 255 252 251 243 227 218 202 205 213 228 243 250 255 
255 252 255 255 254 255 253 255 252 255 255 242 234 218 209 193 184 175 159 151 136 130 118 115 114 108 110 108 115 117 128 141 148 162 170 185 193 208 223 231 245 252 255 252 255 255 254 255 253 255 252 255 255 242 234 218 209 193 196 211 219 234 241 255 
253 255 254 255 253 255 252 255 255 253 246 231 223 207 198 189 173 164 148 140 125 119 114 104 103 97 99 97 104 113 117 130 137 151 159 174 189 197 212 220 234 241 253 255 254 255 253 255 252 255 255 253 246 231 223 207 198 189 185 200 208 223 230 244 
241 252 253 255 252 255 255 254 253 241 234 219 211 202 186 177 161 152 136 128 120 107 102 92 91 85 87 92 92 101 105 118 125 139 154 162 177 185 200 208 222 236 241 252 253 255 252 255 255 254 253 241 234 219 211 202 186 177 173 188 196 211 225 232 
229 240 242 249 254 251 252 244 241 229 222 214 199 190 174 165 149 140 131 116 108 95 90 80 79 80 75 80 80 89 93 106 120 127 142 150 165 173 188 203 210 224 229 240 242 249 254 251 252 244 241 229 222 214 199 190 174 165 161 176 191 199 213 220 
216 227 236 236 241 238 239 231 228 223 209 201 186 177 161 152 143 127 118 103 95 82 77 74 66 67 62 67 67 76 87 93 107 114 129 137 152 167 175 190 197 211 216 227 236 236 241 238 239 231 228 223 209 201 186 177 161 152 155 163 178 186 200 207 
210 214 223 223 228 225 226 225 215 210 196 188 173 164 155 139 130 114 105 90 82 76 64 61 53 54 49 54 61 63 74 80 94 101 116 131 139 154 162 177 184 198 210 214 223 223 228 225 226 225 215 210 196 188 173 164 155 139 142 150 165 173 187 201 
197 201 210 210 215 219 213 212 202 197 183 175 167 151 142 126 117 101 92 84 69 63 51 48 40 41 43 41 48 50 61 67 81 95 103 118 126 141 149 164 178 185 197 201 210 210 215 219 213 212 202 197 183 175 167 151 142 126 129 137 152 167 174 188 
184 188 197 204 202 206 200 199 189 184 177 162 154 138 129 113 104 95 79 71 56 50 38 35 34 28 30 28 35 37 48 61 68 82 90 105 113 128 143 151 165 172 184 188 197 204 202 206 200 199 189 184 177 162 154 138 129 113 116 131 139 154 161 175 
171 182 184 191 189 193 187 186 183 171 164 149 141 125 116 107 91 82 66 58 43 37 32 22 21 15 17 15 22 31 35 48 55 69 77 92 107 115 130 138 152 159 171 182 184 191 189 193 187 186 183 171 164 149 141 125 116 107 103 118 126 141 148 162 
158 169 171 178 176 180 181 173 170 158 151 136 128 119 103 94 78 69 53 45 37 24 19 9 8 2 4 9 9 18 22 35 42 56 71 79 94 102 117 125 139 153 158 169 171 178 176 180 181 173 170 158 151 136 128 119 103 94 90 105 113 128 142 149 
146 157 159 166 171 168 169 161 158 146 139 131 116 107 91 82 66 57 48 33 25 12 7 0 0 3 0 2 0 6 10 23 37 44 59 67 82 90 105 120 127 141 146 157 159 166 171 168 169 161 158 146 139 131 116 107 91 82 78 93 108 116 130 137 
134 145 154 154 159 156 157 149 146 141 127 119 104 95 79 70 61 45 36 21 13 0 0 3 0 2 0 1 0 0 5 11 25 32 47 55 70 85 93 108 115 129 134 145 154 154 159 156 157 149 146 141 127 119 104 95 79 70 73 81 96 104 118 125 
131 135 144 144 149 146 147 146 136 131 117 109 94 85 76 60 51 35 26 11 3 3 0 2 0 1 0 0 3 0 2 1 15 22 37 52 60 75 83 98 105 119 131 135 144 144 149 146 147 146 136 131 117 109 94 85 76 60 63 71 86 94 108 122 
122 126 135 135 140 144 138 137 127 122 108 100 92 76 67 51 42 26 17 9 0 2 0 1 0 0 3 0 2 0 1 0 6 20 28 43 51 66 74 89 103 110 122 126 135 135 140 144 138 137 127 122 108 100 92 76 67 51 54 62 77 92 99 113 
115 119 128 135 133 137 131 130 120 115 108 93 85 69 60 44 35 26 10 2 0 1 0 0 3 0 2 0 1 0 0 3 0 13 21 36 44 59 74 82 96 103 115 119 128 135 133 137 131 130 120 115 108 93 85 69 60 44 47 62 70 85 92 106 
110 121 123 130 128 132 126 125 122 110 103 88 80 64 55 46 30 21 5 1 0 0 3 0 2 0 1 0 0 3 0 2 0 8 16 31 46 54 69 77 91 98 110 121 123 130 128 132 126 125 122 110 103 88 80 64 55 46 42 57 65 80 87 101 
107 118 120 127 125 129 130 122 119 107 100 85 77 68 52 43 27 18 2 0 3 0 2 0 1 0 0 3 0 2 0 1 0 5 20 28 43 51 66 74 88 102 107 118 120 127 125 129 130 122 119 107 100 85 77 68 52 43 39 54 62 77 91 98 
105 116 118 125 130 127 128 120 117 105 98 90 75 66 50 41 25 16 7 0 2 0 1 0 0 3 0 2 0 1 0 0 3 3 18 26 41 49 64 79 86 100 105 116 118 125 130 127 128 120 117 105 98 90 75 66 50 41 37 52 67 75 89 96 
106 117 126 126 131 128 129 121 118 113 99 91 76 67 51 42 33 17 8 0 1 0 0 3 0 2 0 1 0 0 3 0 2 4 19 27 42 57 65 80 87 101 106 117 126 126 131 128 129 121 118 113 99 91 76 67 51 42 45 53 68 76 90 97 
116 120 129 129 134 131 132 131 121 116 102 94 79 70 61 45 36 20 11 0 0 3 0 2 0 1 0 0 3 0 2 0 1 7 22 37 45 60 68 83 90 104 116 120 129 129 134 131 132 131 121 116 102 94 79 70 61 45 48 56 71 79 93 107 
121 125 134 134 139 143 137 136 126 255 252 255 255 254 255 253 255 25 16 8 0 2 0 1 0 0 3 0 2 0 1 0 5 19 27 42 50 65 73 88 102 109 121 125 134 134 139 143 137 136 126 121 107 99 91 75 66 50 53 61 76 91 98 112 
128 132 141 148 146 150 144 143 133 255 255 254 255 253 255 252 255 39 23 15 0 1 0 0 3 0 2 0 1 0 0 5 12 26 34 49 57 72 87 95 109 116 128 132 141 148 146 150 144 143 133 128 121 106 98 82 73 57 60 75 83 98 105 119 
137 148 150 157 155 159 153 152 149 254 255 253 255 252 255 255 254 48 32 24 9 3 3 0 2 0 1 0 0 3 1 14 21 35 43 58 73 81 96 104 118 125 137 148 150 157 155 159 153 152 149 137 130 115 107 91 82 73 69 84 92 107 114 128 
147 158 160 167 165 169 170 162 159 253 255 252 255 255 254 255 253 58 42 34 26 13 8 0 1 0 0 3 0 7 11 24 31 45 60 68 83 91 106 114 128 142 147 158 160 167 165 169 170 162 159 147 140 125 117 108 92 83 79 94 102 117 131 138 
157 168 170 177 182 179 180 172 169 252 255 255 254 255 253 255 252 68 59 44 36 23 18 8 7 8 3 8 8 17 21 34 48 55 70 78 93 101 116 131 138 152 157 168 170 177 182 179 180 172 169 157 150 142 127 118 102 93 89 104 119 127 141 148 
168 179 188 188 193 190 191 183 180 255 254 255 253 255 252 255 255 79 70 55 47 34 29 26 18 19 14 19 19 28 39 45 59 66 81 89 104 119 127 142 149 163 168 179 188 188 193 190 191 183 180 175 161 153 138 129 113 104 107 115 130 138 152 159 
186 190 199 199 204 201 202 201 191 255 253 255 252 255 255 254 255 90 81 66 58 52 40 37 29 30 25 30 37 39 50 56 70 77 92 107 115 130 138 153 160 174 186 190 199 199 204 201 202 201 191 186 172 164 149 140 131 115 118 126 141 149 163 177 
197 201 210 210 215 219 213 212 202 255 252 255 255 254 255 253 255 101 92 84 69 63 51 48 40 41 43 41 48 50 61 67 81 95 103 118 126 141 149 164 178 185 197 201 210 210 215 219 213 212 202 197 183 175 167 151 142 126 129 137 152 167 174 188 
208 212 221 228 226 230 224 223 213 208 201 186 178 162 153 137 128 119 103 95 80 74 62 59 58 52 54 52 59 61 72 85 92 106 114 129 137 152 167 175 189 196 208 212 221 228 226 230 224 223 213 208 201 186 178 162 153 137 140 155 163 178 185 199 
219 230 232 239 237 241 235 234 231 219 212 197 189 173 164 155 139 130 114 106 91 85 80 70 69 63 65 63 70 79 83 96 103 117 125 140 155 163 178 186 200 207 219 230 232 239 237 241 235 234 231 219 212 197 189 173 164 155 151 166 174 189 196 210 
230 241 243 250 248 252 253 245 242 230 223 208 200 191 175 166 150 141 125 117 109 96 91 81 80 74 76 81 81 90 94 107 114 128 143 151 166 174 189 197 211 225 230 241 243 250 248 252 253 245 242 230 223 208 200 191 175 166 162 177 185 200 214 221 
240 251 252 255 255 254 255 253 252 240 233 225 210 201 185 176 160 151 142 127 119 106 101 91 90 91 86 91 91 100 104 117 131 138 153 161 176 184 199 214 221 235 240 251 252 255 255 254 255 253 252 240 233 225 210 201 185 176 172 187 202 210 224 231 
250 255 255 254 255 253 255 252 255 255 243 235 220 211 195 186 177 161 152 137 129 116 111 108 100 101 96 101 101 110 121 127 141 148 163 171 186 201 209 224 231 245 250 255 255 254 255 253 255 252 255 255 243 235 220 211 195 186 189 197 212 220 234 241 
255 254 255 253 255 252 255 255 254 255 251 243 228 219 210 194 185 169 160 145 137 131 119 116 108 109 104 109 116 118 129 135 149 156 171 186 194 209 217 232 239 253 255 254 255 253 255 252 255 255 254 255 251 243 228 219 210 194 197 205 220 228 242 255 
255 253 255 252 255 255 254 255 253 255 252 250 242 226 217 201 192 176 167 159 144 138 126 123 115 116 118 116 123 125 136 142 156 170 178 193 201 216 224 239 253 254 255 253 255 252 255 255 254 255 253 255 252 250 242 226 217 201 204 212 227 242 249 255 
255 252 255 255 254 255 253 255 252 255 255 254 247 231 222 206 197 188 172 164 149 143 131 128 127 121 123 121 128 130 141 154 161 175 183 198 206 221 236 244 255 253 255 252 255 255 254 255 253 255 252 255 255 254 247 231 222 206 209 224 232 247 253 255 
255 255 254 255 253 255 252 255 255 254 255 253 250 234 225 216 200 191 175 167 152 146 141 131 130 124 126 124 131 140 144 157 164 178 186 201 216 224 239 247 255 252 255 255 254 255 253 255 252 255 255 254 255 253 250 234 225 216 212 227 235 250 252 255 
254 255 253 255 252 255 255 254 255 253 255 252 251 242 226 217 201 192 176 168 160 147 142 132 131 125 127 132 132 141 145 158 165 179 194 202 217 225 240 248 255 255 254 255 253 255 252 255 255 254 255 253 255 252 251 242 226 217 213 228 236 251 255 254 
253 255 252 255 255 254 255 253 255 252 255 255 251 242 226 217 201 192 183 168 160 147 142 132 131 132 127 132 132 141 145 158 172 179 194 202 217 225 240 255 254 255 253 255 252 255 255 254 255 253 255 252 255 255 251 242 226 217 213 228 243 251 255 253 
252 255 255 254 255 253 255 252 255 255 254 255 248 239 223 214 205 189 180 165 157 144 139 136 128 129 124 129 129 138 149 155 169 176 191 199 214 229 237 252 253 255 252 255 255 254 255 253 255 252 255 255 254 255 248 239 223 214 217 225 240 248 255 252 
255 254 255 253 255 252 255 255 254 255 253 255 243 234 225 209 200 184 175 160 152 146 134 131 123 124 119 124 131 133 144 150 201 197 200 203 199 202 232 247 252 255 255 254 255 253 255 252 255 255 254 255 253 255 243 234 225 209 212 220 235 243 255 255 
255 253 255 252 255 255 254 255 253 255 252 251 243 227 218 202 193 177 168 160 145 139 127 124 116 117 119 117 124 126 137 143 200 203 199 202 198 201 225 240 254 254 255 253 255 252 255 255 254 255 253 255 252 251 243 227 218 202 205 213 228 243 250 255 
255 252 255 255 254 255 253 255 252 255 255 242 234 218 209 193 184 175 159 151 136 130 118 115 114 108 110 108 115 117 128 141 199 202 198 201 197 200 223 231 245 252 255 252 255 255 254 255 253 255 252 255 255 242 234 218 209 193 196 211 219 234 241 255 
253 255 254 255 253 255 252 255 255 253 246 231 223 207 198 189 173 164 148 140 125 119 114 104 103 97 99 97 104 113 117 130 198 201 197 200 203 199 212 220 234 241 253 255 254 255 253 255 252 255 255 253 246 231 223 207 198 189 185 200 208 223 230 244 
241 252 253 255 252 255 255 254 253 241 234 219 211 202 186 177 161 152 136 128 120 107 102 92 91 85 87 92 92 101 105 118 197 200 203 199 202 198 200 208 222 236 241 252 253 255 252 255 255 254 253 241 234 219 211 202 186 177 173 188 196 211 225 232 
229 240 242 249 254 251 252 244 241 229 222 214 199 190 174 165 149 140 131 116 108 95 90 80 79 80 75 80 80 89 93 106 203 199 202 198 201 197 188 203 210 224 229 240 242 249 254 251 252 244 241 229 222 214 199 190 174 165 161 176 191 199 213 220 
216 227 236 236 241 238 239 231 228 223 209 201 186 177 161 152 143 127 118 103 95 82 77 74 66 67 62 67 67 76 87 93 107 114 129 137 152 167 175 190 197 211 216 227 236 236 241 238 239 231 228 223 209 201 186 177 161 152 155 163 178 186 200 207 
210 214 223 223 228 225 226 225 215 210 196 188 173 164 155 139 130 114 105 90 82 76 64 61 53 54 49 54 61 63 74 80 94 101 116 131 139 154 162 177 184 198 210 214 223 223 228 225 226 225 215 210 196 188 173 164 155 139 142 150 165 173 187 201 
197 201 210 210 215 219 213 212 202 197 183 175 167 151 142 126 117 101 92 84 69 63 51 48 40 41 43 41 48 50 61 67 81 95 103 118 126 141 149 164 178 185 197 201 210 210 215 219 213 212 202 197 183 175 167 151 142 126 129 137 152 167 174 188 
184 188 197 204 202 206 200 199 189 184 177 162 154 138 129 113 104 95 79 71 56 50 38 35 34 28 30 28 35 37 48 61 68 82 90 105 113 128 143 151 165 172 184 188 197 204 202 206 200 199 189 184 177 162 154 138 129 113 116 131 139 154 161 175 
171 182 184 191 189 193 187 186 183 171 164 149 141 125 116 107 91 82 66 58 43 37 32 22 21 15 17 15 22 31 35 48 55 69 77 92 107 115 130 138 152 159 171 182 184 191 189 193 187 186 183 171 164 149 141 125 116 107 103 118 126 141 148 162 
158 169 171 178 176 180 181 173 170 158 151 136 128 119 103 94 78 69 53 45 37 24 19 9 8 2 4 9 9 18 22 35 42 56 71 79 94 102 117 125 139 153 158 169 171 178 176 180 181 173 170 158 151 136 128 119 103 94 90 105 113 128 142 149 
146 157 159 166 171 168 169 161 158 146 139 131 116 107 91 82 66 57 48 33 25 12 7 0 0 3 0 2 0 6 10 23 37 44 59 67 82 90 105 120 127 141 146 157 159 166 171 168 169 161 158 146 139 131 116 107 91 82 78 93 108 116 130 137 
134 145 154 154 159 156 157 149 146 141 127 119 104 95 79 70 61 45 36 21 13 0 0 3 0 2 0 1 0 0 5 11 25 32 47 55 70 85 93 108 115 129 134 145 154 154 159 156 157 149 146 141 127 119 104 95 79 70 73 81 96 104 118 125 
131 135 144 144 149 146 147 146 136 131 117 109 94 85 76 60 51 35 26 11 3 3 0 2 0 1 0 0 3 0 2 1 15 22 37 52 60 75 83 98 105 119 131 135 144 144 149 146 147 146 136 131 117 109 94 85 76 60 63 71 86 94 108 122 
122 126 135 135 140 144 138 137 127 122 108 100 92 76 67 51 42 26 17 9 0 2 0 1 0 0 3 0 2 0 1 0 6 20 28 43 51 66 74 89 103 110 122 126 135 135 140 144 138 137 127 122 108 100 92 76 67 51 54 62 77 92 99 113 
115 119 128 135 133 137 131 130 120 115 108 93 85 69 60 44 35 26 10 2 0 1 0 0 3 0 2 0 1 0 0 3 0 13 21 36 44 59 74 82 96 103 115 119 128 135 133 137 131 130 120 115 108 93 85 69 60 44 47 62 70 85 92 106 
110 121 123 130 128 132 126 125 122 110 103 88 80 64 55 46 30 21 5 1 0 0 3 0 2 0 1 0 0 3 0 2 0 8 16 31 46 54 69 77 91 98 110 121 123 130 128 132 126 125 122 110 103 88 80 64 55 46 42 57 65 80 87 101 
107 118 120 127 125 129 130 122 119 107 100 85 77 68 52 43 27 18 2 0 3 0 2 0 1 0 0 3 0 2 0 1 0 5 20 28 43 51 66 74 88 102 107 118 120 127 125 129 130 122 119 107 100 85 77 68 52 43 39 54 62 77 91 98 
105 116 118 125 130 127 128 120 117 105 98 90 75 66 50 41 25 16 7 0 2 0 1 0 0 3 0 2 0 1 0 0 3 3 18 26 41 49 64 79 86 100 105 116 118 125 130 127 128 120 117 105 98 90 75 66 50 41 37 52 67 75 89 96 
252 255 255 254 255 253 255 252 255 255 254 255 250 241 225 216 207 191 182 167 159 146 141 138 130 131 126 131 131 140 151 157 171 178 193 201 216 231 239 254 253 255 252 255 255 254 255 253 255 252 255 255 254 255 250 241 225 216 219 227 242 250 255 252 
255 254 255 253 255 252 255 255 254 255 253 255 247 238 229 213 204 188 179 164 156 150 138 135 127 128 123 128 135 137 148 154 168 175 190 205 213 228 236 251 252 255 255 254 255 253 255 252 255 255 254 255 253 255 247 238 229 213 216 224 239 247 255 255 
255 253 255 252 255 255 254 255 253 255 252 255 249 233 224 208 199 183 174 166 151 145 133 130 122 123 125 123 130 132 143 149 163 177 185 200 208 223 231 246 255 254 255 253 255 252 255 255 254 255 253 255 252 255 249 233 224 208 211 219 234 249 254 255 
