P2
64 64
255
213 228 243 251 255 253 255 252 255 255 254 255 253 255 252 255 255 254 254 238 229 213 204 195 179 171 156 150 138 135 134 128 130 128 135 137 148 161 168 182 190 205 213 228 243 251 255 253 255 252 255 255 254 255 253 255 252 255 255 254 254 238 229 213 
217 225 240 248 255 252 255 255 254 255 253 255 252 255 255 254 255 253 251 235 226 217 201 192 176 168 153 147 142 132 131 125 127 125 132 141 145 158 165 179 187 202 217 225 240 248 255 252 255 255 254 255 253 255 252 255 255 254 255 253 251 235 226 217 
212 220 235 243 255 255 254 255 253 255 252 255 255 254 255 253 255 252 246 237 221 212 196 187 171 163 155 142 137 127 126 120 122 127 127 136 140 153 160 174 189 197 212 220 235 243 255 255 254 255 253 255 252 255 255 254 255 253 255 252 246 237 221 212 
205 213 228 243 250 255 253 255 252 255 255 254 255 253 255 252 255 254 239 230 214 205 189 180 171 156 148 135 130 120 119 120 115 120 120 129 133 146 160 167 182 190 205 213 228 243 250 255 253 255 252 255 255 254 255 253 255 252 255 254 239 230 214 205 
196 211 219 234 241 255 252 255 255 254 255 253 255 252 255 255 253 245 230 221 205 196 187 171 162 147 139 126 121 118 110 111 106 111 111 120 131 137 151 158 173 181 196 211 219 234 241 255 252 255 255 254 255 253 255 252 255 255 253 245 230 221 205 196 
185 200 208 223 230 244 255 254 255 253 255 252 255 255 254 255 242 234 219 210 201 185 176 160 151 136 128 122 110 107 99 100 95 100 107 109 120 126 140 147 162 177 185 200 208 223 230 244 255 254 255 253 255 252 255 255 254 255 242 234 219 210 201 185 
173 188 196 211 225 232 244 248 255 252 255 255 254 255 249 244 230 222 214 198 189 173 164 148 139 131 116 110 98 95 87 88 90 88 95 97 108 114 128 142 150 165 173 188 196 211 225 232 244 248 255 252 255 255 254 255 249 244 230 222 214 198 189 173 
161 176 191 199 213 220 232 236 245 252 250 254 248 247 237 232 225 210 202 186 177 161 152 143 127 119 104 98 86 83 82 76 78 76 83 85 96 109 116 130 138 153 161 176 191 199 213 220 232 236 245 252 250 254 248 247 237 232 225 210 202 186 177 161 
155 163 178 186 200 207 219 230 232 239 237 241 235 234 231 219 212 197 189 173 164 155 139 130 114 106 91 85 80 70 69 63 65 63 70 79 83 96 103 117 125 140 155 163 178 186 200 207 219 230 232 239 237 241 235 234 231 219 212 197 189 173 164 155 
142 150 165 173 187 201 206 217 219 226 224 228 229 221 218 206 199 184 176 167 151 142 126 117 101 93 85 72 67 57 56 50 52 57 57 66 70 83 90 104 119 127 142 150 165 173 187 201 206 217 219 226 224 228 229 221 218 206 199 184 176 167 151 142 
129 137 152 167 174 188 193 204 206 213 218 215 216 208 205 193 186 178 163 154 138 129 113 104 95 80 72 59 54 44 43 44 39 44 44 53 57 70 84 91 106 114 129 137 152 167 174 188 193 204 206 213 218 215 216 208 205 193 186 178 163 154 138 129 
116 131 139 154 161 175 180 191 200 200 205 202 203 195 192 187 173 165 150 141 125 116 107 91 82 67 59 46 41 38 30 31 26 31 31 40 51 57 71 78 93 101 116 131 139 154 161 175 180 191 200 200 205 202 203 195 192 187 173 165 150 141 125 116 
103 118 126 141 148 162 174 178 187 187 192 189 190 189 179 174 160 152 137 128 119 103 94 78 69 54 46 40 28 25 17 18 13 18 25 27 38 44 58 65 80 95 103 118 126 141 148 162 174 178 187 187 192 189 190 189 179 174 160 152 137 128 119 103 
90 105 113 128 142 149 161 165 174 174 179 183 177 176 166 161 147 139 131 115 106 90 81 65 56 48 33 27 15 12 4 5 7 5 12 14 25 31 45 59 67 82 90 105 113 128 142 149 161 165 174 174 179 183 177 176 166 161 147 139 131 115 106 90 
78 93 108 116 130 137 149 153 162 169 167 171 165 164 154 149 142 127 119 103 94 78 69 60 44 36 21 15 3 0 3 0 2 0 1 2 13 26 33 47 55 70 78 93 108 116 130 137 149 153 162 169 167 171 165 164 154 149 142 127 119 103 94 78 
73 81 96 104 118 125 137 148 150 157 155 159 153 152 149 137 130 115 107 91 82 73 57 48 32 24 9 3 3 0 2 0 1 0 0 3 1 14 21 35 43 58 73 81 96 104 118 125 137 148 150 157 155 159 153 152 149 137 130 115 107 91 82 73 
63 71 86 94 108 122 127 138 140 147 145 149 150 142 139 127 120 105 97 88 72 63 47 38 22 14 6 0 2 0 1 0 0 3 0 2 0 4 11 25 40 48 63 71 86 94 108 122 127 138 140 147 145 149 150 142 139 127 120 105 97 88 72 63 
54 62 77 92 99 113 118 129 131 138 143 140 141 133 130 118 111 103 88 79 63 54 38 29 20 5 2 0 1 0 0 3 0 2 0 1 0 0 9 16 31 39 54 62 77 92 99 113 118 129 131 138 143 140 141 133 130 118 111 103 88 79 63 54 
47 62 70 85 92 106 111 122 131 131 136 133 134 126 123 118 104 96 81 72 56 47 38 22 13 0 1 0 0 3 0 2 0 1 0 0 3 0 2 9 24 32 47 62 70 85 92 106 111 122 131 131 136 133 134 126 123 118 104 96 81 72 56 47 
42 57 65 80 87 101 113 117 126 126 131 128 129 128 118 113 99 91 76 67 58 42 33 17 8 0 0 3 0 2 0 1 0 0 3 0 2 0 1 4 19 34 42 57 65 80 87 101 113 117 126 126 131 128 129 128 118 113 99 91 76 67 58 42 
39 54 62 77 91 98 110 114 123 123 128 132 126 125 115 110 96 88 80 64 55 39 30 14 5 3 0 2 0 1 0 0 3 0 2 0 1 0 0 8 16 31 39 54 62 77 91 98 110 114 123 123 128 132 126 125 115 110 96 88 80 64 55 39 
252 255 255 254 255 253 255 252 121 128 126 130 124 123 113 108 101 86 78 62 53 37 28 19 3 2 0 1 0 0 3 0 2 0 1 0 0 3 0 6 14 29 37 52 67 75 89 96 108 112 121 128 126 130 124 123 113 108 101 86 78 62 53 37 
255 254 255 253 255 252 255 255 122 129 127 131 125 124 121 109 102 87 79 63 54 45 29 20 4 1 0 0 3 0 2 0 1 0 0 3 0 2 0 7 15 30 45 53 68 76 90 97 109 120 122 129 127 131 125 124 121 109 102 87 79 63 54 45 
255 253 255 252 255 255 254 255 125 132 130 134 135 127 124 112 105 90 82 73 57 48 32 23 7 0 3 0 2 0 1 0 0 3 0 2 0 1 0 10 25 33 48 56 71 79 93 107 112 123 125 132 130 134 135 127 124 112 105 90 82 73 57 48 
255 252 255 255 254 255 253 255 130 137 142 139 140 132 129 117 110 102 87 78 62 53 37 28 19 4 2 0 1 0 0 3 0 2 0 1 0 0 8 15 30 38 53 61 76 91 98 112 117 128 130 137 142 139 140 132 129 117 110 102 87 78 62 53 
255 255 254 255 253 255 252 255 144 144 149 146 147 139 136 131 117 109 94 85 69 60 51 35 26 11 3 0 0 3 0 2 0 1 0 0 3 1 15 22 37 45 60 75 83 98 105 119 124 135 144 144 149 146 147 139 136 131 117 109 94 85 69 60 
254 255 253 255 252 255 255 254 153 153 158 155 156 155 145 140 126 118 103 94 85 69 60 44 35 20 12 6 0 2 0 1 0 0 3 0 4 10 24 31 46 61 69 84 92 107 114 128 140 144 153 153 158 155 156 155 145 140 126 118 103 94 85 69 
253 255 252 255 255 254 255 253 163 163 168 172 166 165 155 150 136 128 120 104 95 79 70 54 45 37 22 16 4 1 0 0 3 0 2 3 14 20 34 48 56 71 79 94 102 117 131 138 150 154 163 163 168 172 166 165 155 150 136 128 120 104 95 79 
252 255 255 254 255 253 255 252 173 180 178 182 176 175 165 160 153 138 130 114 105 89 80 71 55 47 32 26 14 11 10 4 6 4 11 13 24 37 44 58 66 81 89 104 119 127 141 148 160 164 173 180 178 182 176 175 165 160 153 138 130 114 105 89 
107 115 130 138 152 159 171 182 184 191 189 193 187 186 183 171 164 149 141 125 116 107 91 82 66 58 43 37 32 22 21 15 17 15 22 31 35 48 55 69 77 92 107 115 130 138 152 159 171 182 184 191 189 193 187 186 183 171 164 149 141 125 116 107 
118 126 141 149 163 177 182 193 195 202 200 204 205 197 194 182 175 160 152 143 127 118 102 93 77 69 61 48 43 33 32 26 28 33 33 42 46 59 66 80 95 103 118 126 141 149 163 177 182 193 195 202 200 204 205 197 194 182 175 160 152 143 127 118 
129 137 152 167 174 188 193 204 206 213 218 215 216 208 205 193 186 178 163 154 138 129 113 104 95 80 72 59 54 44 43 44 39 44 44 53 57 70 84 91 106 114 129 137 152 167 174 188 193 204 206 213 218 215 216 208 205 193 186 178 163 154 138 129 
140 155 163 178 185 199 204 215 224 224 229 226 227 219 216 211 197 189 174 165 149 140 131 115 106 91 83 70 65 62 54 55 198 201 197 200 203 199 95 102 117 125 140 155 163 178 185 199 204 215 224 224 229 226 227 219 216 211 197 189 174 165 149 140 
151 166 174 189 196 210 222 226 235 235 240 237 238 237 227 222 208 200 185 176 167 151 142 126 117 102 94 88 76 73 65 66 197 200 203 199 202 198 106 113 128 143 151 166 174 189 196 210 222 226 235 235 240 237 238 237 227 222 208 200 185 176 167 151 
162 177 185 200 214 221 233 237 246 246 251 255 249 248 238 233 219 211 203 187 178 162 153 137 128 120 105 99 87 84 76 77 203 199 202 198 201 197 117 131 139 154 162 177 185 200 214 221 233 237 246 246 251 255 249 248 238 233 219 211 203 187 178 162 
172 187 202 210 224 231 243 247 255 255 254 255 253 255 248 243 236 221 213 197 188 172 163 154 138 130 115 109 97 94 93 87 202 198 201 197 200 203 127 141 149 164 172 187 202 210 224 231 243 247 255 255 254 255 253 255 248 243 236 221 213 197 188 172 
189 197 212 220 234 241 253 255 254 255 253 255 252 255 255 253 246 231 223 207 198 189 173 164 148 140 125 119 114 104 103 97 201 197 200 203 199 202 137 151 159 174 189 197 212 220 234 241 253 255 254 255 253 255 252 255 255 253 246 231 223 207 198 189 
197 205 220 228 242 255 254 255 253 255 252 255 255 254 255 253 254 239 231 222 206 197 181 172 156 148 140 127 122 112 111 105 200 203 199 202 198 201 145 159 174 182 197 205 220 228 242 255 254 255 253 255 252 255 255 254 255 253 254 239 231 222 206 197 
204 212 227 242 249 255 253 255 252 255 255 254 255 253 255 252 255 253 238 229 213 204 188 179 170 155 147 134 129 119 118 119 114 119 119 128 132 145 159 166 181 189 204 212 227 242 249 255 253 255 252 255 255 254 255 253 255 252 255 253 238 229 213 204 
209 224 232 247 253 255 252 255 255 254 255 253 255 252 255 255 254 255 243 234 218 209 200 184 175 160 152 139 134 131 123 124 119 124 124 133 144 150 164 171 186 194 209 224 232 247 253 255 252 255 255 254 255 253 255 252 255 255 254 255 243 234 218 209 
212 227 235 250 252 255 255 254 255 253 255 252 255 255 254 255 253 255 246 237 228 212 203 187 178 163 155 149 137 134 126 127 122 127 134 136 147 153 167 174 189 204 212 227 235 250 252 255 255 254 255 253 255 252 255 255 254 255 253 255 246 237 228 212 
213 228 236 251 255 254 255 253 255 252 255 255 254 255 253 255 252 255 254 238 229 213 204 188 179 171 156 150 138 135 127 128 130 128 135 137 148 154 168 182 190 205 213 228 236 251 255 254 255 253 255 252 255 255 254 255 253 255 252 255 254 238 229 213 
213 228 243 251 255 253 255 252 255 255 254 255 253 255 252 255 255 254 254 238 229 213 204 195 179 171 156 150 138 135 134 128 130 128 135 137 148 161 168 182 190 205 213 228 243 251 255 253 255 252 255 255 254 255 253 255 252 255 255 254 254 238 229 213 
217 225 240 248 255 252 255 255 254 255 253 255 252 255 255 254 255 253 251 235 226 217 201 192 176 168 153 147 142 132 131 125 127 125 132 141 145 158 165 179 187 202 217 225 240 248 255 252 255 255 254 255 253 255 252 255 255 254 255 253 251 235 226 217 
212 220 235 243 255 255 254 255 253 255 252 255 255 254 255 253 255 252 246 237 221 212 196 187 171 163 155 142 137 127 126 120 122 127 127 136 140 153 160 174 189 197 212 220 235 243 255 255 254 255 253 255 252 255 255 254 255 253 255 252 246 237 221 212 
205 213 228 243 250 255 253 255 252 255 255 254 255 253 255 252 255 254 239 230 214 205 189 180 171 156 148 135 130 120 119 120 115 120 120 129 133 146 160 167 182 190 205 213 228 243 250 255 253 255 252 255 255 254 255 253 255 252 255 254 239 230 214 205 
196 211 219 234 241 255 252 255 255 254 255 253 255 252 255 255 253 245 230 221 205 196 187 171 162 147 139 126 121 118 110 111 106 111 111 120 131 137 151 158 173 181 196 211 219 234 241 255 252 255 255 254 255 253 255 252 255 255 253 245 230 221 205 196 
185 200 208 223 230 244 255 254 255 253 255 252 255 255 254 255 242 234 219 210 201 185 176 160 151 136 128 122 110 107 99 100 95 100 107 109 120 126 140 147 162 177 185 200 208 223 230 244 255 254 255 253 255 252 255 255 254 255 242 234 219 210 201 185 
173 188 196 211 225 232 244 248 255 252 255 255 254 255 249 244 230 222 214 198 189 173 164 148 139 131 116 110 98 95 87 88 90 88 95 97 108 114 128 142 150 165 173 188 196 211 225 232 244 248 255 252 255 255 254 255 249 244 230 222 214 198 189 173 
161 176 191 199 213 220 232 236 245 252 250 254 248 247 237 232 225 210 202 186 177 161 152 143 127 119 104 98 86 83 82 76 78 76 83 85 96 109 116 130 138 153 161 176 191 199 213 220 232 236 245 252 250 254 248 247 237 232 225 210 202 186 177 161 
155 163 178 186 200 207 219 230 232 239 237 241 235 234 231 219 212 197 189 173 164 155 139 130 114 106 91 85 80 70 69 63 65 63 70 79 83 96 103 117 125 140 155 163 178 186 200 207 219 230 232 239 237 241 235 234 231 219 212 197 189 173 164 155 
142 150 165 173 187 201 206 217 219 226 224 228 229 221 218 206 199 184 176 167 151 142 126 117 101 93 85 72 67 57 56 50 52 57 57 66 70 83 90 104 119 127 142 150 165 173 187 201 206 217 219 226 224 228 229 221 218 206 199 184 176 167 151 142 
129 137 152 167 174 188 193 204 206 213 218 215 216 208 205 193 186 178 163 154 138 129 113 104 95 80 72 59 54 44 43 44 39 44 44 53 57 70 84 91 106 114 129 137 152 167 174 188 193 204 206 213 218 215 216 208 205 193 186 178 163 154 138 129 
116 131 139 154 161 175 180 191 200 200 205 202 203 195 192 187 173 165 150 141 125 116 107 91 82 67 59 46 41 38 30 31 26 31 31 40 51 57 71 78 93 101 116 131 139 154 161 175 180 191 200 200 205 202 203 195 192 187 173 165 150 141 125 116 
103 118 126 141 148 162 174 178 187 187 192 189 190 189 179 174 160 152 137 128 119 103 94 78 69 54 46 40 28 25 17 18 13 18 25 27 38 44 58 65 80 95 103 118 126 141 148 162 174 178 187 187 192 189 190 189 179 174 160 152 137 128 119 103 
90 105 113 128 142 149 161 165 174 174 179 183 177 176 166 161 147 139 131 115 106 90 81 65 56 48 33 27 15 12 4 5 7 5 12 14 25 31 45 59 67 82 90 105 113 128 142 149 161 165 174 174 179 183 177 176 166 161 147 139 131 115 106 90 
78 93 108 116 130 137 149 153 162 169 167 171 165 164 154 149 142 127 119 103 94 78 69 60 44 36 21 15 3 0 3 0 2 0 1 2 13 26 33 47 55 70 78 93 108 116 130 137 149 153 162 169 167 171 165 164 154 149 142 127 119 103 94 78 
73 81 96 104 118 125 137 148 150 157 155 159 153 152 149 137 130 115 107 91 82 73 57 48 32 24 9 3 3 0 2 0 1 0 0 3 1 14 21 35 43 58 73 81 96 104 118 125 137 148 150 157 155 159 153 152 149 137 130 115 107 91 82 73 
63 71 86 94 108 122 127 138 140 147 145 149 150 142 139 127 120 105 97 88 72 63 47 38 22 14 6 0 2 0 1 0 0 3 0 2 0 4 11 25 40 48 63 71 86 94 108 122 127 138 140 147 145 149 150 142 139 127 120 105 97 88 72 63 
54 62 77 92 99 113 118 129 131 138 143 140 141 133 130 118 111 103 88 79 63 54 38 29 20 5 2 0 1 0 0 3 0 2 0 1 0 0 9 16 31 39 54 62 77 92 99 113 118 129 131 138 143 140 141 133 130 118 111 103 88 79 63 54 
47 62 70 85 92 106 111 122 131 131 136 133 134 126 123 118 104 96 81 72 56 47 38 22 13 0 1 0 0 3 0 2 0 1 0 0 3 0 2 9 24 32 47 62 70 85 92 106 111 122 131 131 136 133 134 126 123 118 104 96 81 72 56 47 
42 57 65 80 87 101 113 117 126 126 131 128 129 128 118 113 99 91 76 67 58 42 33 17 8 0 0 3 0 2 0 1 0 0 3 0 2 0 1 4 19 34 42 57 65 80 87 101 113 117 126 126 131 128 129 128 118 113 99 91 76 67 58 42 
39 54 62 77 91 98 110 114 123 123 128 132 126 125 115 110 96 88 80 64 55 39 30 14 5 3 0 2 0 1 0 0 3 0 2 0 1 0 0 8 16 31 39 54 62 77 91 98 110 114 123 123 128 132 126 125 115 110 96 88 80 64 55 39 
37 52 67 75 89 96 108 112 121 128 126 130 124 123 113 108 101 86 78 62 53 37 28 19 3 2 0 1 0 0 3 0 2 0 1 0 0 3 0 6 14 29 37 52 67 75 89 96 108 112 121 128 126 130 124 123 113 108 101 86 78 62 53 37 
