P2
64 64
255
253 255 252 255 255 254 255 253 255 252 255 255 254 255 244 235 219 210 201 185 176 161 153 140 135 132 124 125 120 125 125 134 145 151 165 172 187 195 210 225 233 248 253 255 252 255 255 254 255 253 255 252 255 255 254 255 244 235 219 210 213 221 236 244 
248 255 255 254 255 253 255 252 255 255 254 255 253 252 237 228 219 203 194 178 169 154 146 140 128 125 117 118 113 118 125 127 138 144 158 165 180 195 203 218 226 241 248 255 255 254 255 253 255 252 255 255 254 255 253 252 237 228 219 203 206 214 229 237 
246 253 255 253 255 252 255 255 254 255 253 255 251 243 235 219 210 194 185 169 160 152 137 131 119 116 108 109 111 109 116 118 129 135 149 163 171 186 194 209 217 232 246 253 255 253 255 252 255 255 254 255 253 255 251 243 235 219 210 194 197 205 220 235 
235 242 254 252 255 255 254 255 253 255 252 254 247 232 224 208 199 183 174 165 149 141 126 120 108 105 104 98 100 98 105 107 118 131 138 152 160 175 183 198 213 221 235 242 254 252 255 255 254 255 253 255 252 254 247 232 224 208 199 183 186 201 209 224 
223 230 242 253 254 255 253 255 252 255 254 242 235 220 212 196 187 178 162 153 137 129 114 108 103 93 92 86 88 86 93 102 106 119 126 140 148 163 178 186 201 209 223 230 242 253 254 255 253 255 252 255 254 242 235 220 212 196 187 178 174 189 197 212 
211 225 230 241 243 250 248 252 253 245 242 230 223 208 200 191 175 166 150 141 125 117 109 96 91 81 80 74 76 81 81 90 94 107 114 128 143 151 166 174 189 197 211 225 230 241 243 250 248 252 253 245 242 230 223 208 200 191 175 166 162 177 185 200 
198 212 217 228 230 237 242 239 240 232 229 217 210 202 187 178 162 153 137 128 119 104 96 83 78 68 67 68 63 68 68 77 81 94 108 115 130 138 153 161 176 191 198 212 217 228 230 237 242 239 240 232 229 217 210 202 187 178 162 153 149 164 179 187 
185 199 204 215 224 224 229 226 227 219 216 211 197 189 174 165 149 140 131 115 106 91 83 70 65 62 54 55 50 55 55 64 75 81 95 102 117 125 140 155 163 178 185 199 204 215 224 224 229 226 227 219 216 211 197 189 174 165 149 140 143 151 166 174 
172 186 198 202 211 211 216 213 214 213 203 198 184 176 161 152 143 127 118 102 93 78 70 64 52 49 41 42 37 42 49 51 62 68 82 89 104 119 127 142 150 165 172 186 198 202 211 211 216 213 214 213 203 198 184 176 161 152 143 127 130 138 153 161 
166 173 185 189 198 198 203 207 201 200 190 185 171 163 155 139 130 114 105 89 80 72 57 51 39 36 28 29 31 29 36 38 49 55 69 83 91 106 114 129 137 152 166 173 185 189 198 198 203 207 201 200 190 185 171 163 155 139 130 114 117 125 140 155 
153 160 172 176 185 192 190 194 188 187 177 172 165 150 142 126 117 101 92 83 67 59 44 38 26 23 22 16 18 16 23 25 36 49 56 70 78 93 101 116 131 139 153 160 172 176 185 192 190 194 188 187 177 172 165 150 142 126 117 101 104 119 127 142 
140 147 159 170 172 179 177 181 175 174 171 159 152 137 129 113 104 95 79 70 54 46 31 25 20 10 9 3 5 3 10 19 23 36 43 57 65 80 95 103 118 126 140 147 159 170 172 179 177 181 175 174 171 159 152 137 129 113 104 95 91 106 114 129 
128 142 147 158 160 167 165 169 170 162 159 147 140 125 117 108 92 83 67 58 42 34 26 13 8 0 1 0 0 3 0 7 11 24 31 45 60 68 83 91 106 114 128 142 147 158 160 167 165 169 170 162 159 147 140 125 117 108 92 83 79 94 102 117 
116 130 135 146 148 155 160 157 158 150 147 135 128 120 105 96 80 71 55 46 37 22 14 1 1 0 0 3 0 2 0 1 0 12 26 33 48 56 71 79 94 109 116 130 135 146 148 155 160 157 158 150 147 135 128 120 105 96 80 71 67 82 97 105 
106 120 125 136 145 145 150 147 148 140 137 132 118 110 95 86 70 61 52 36 27 12 4 0 0 3 0 2 0 1 0 0 3 2 16 23 38 46 61 76 84 99 106 120 125 136 145 145 150 147 148 140 137 132 118 110 95 86 70 61 64 72 87 95 
97 111 123 127 136 136 141 138 139 138 128 123 109 101 86 77 68 52 43 27 18 3 0 3 0 2 0 1 0 0 3 0 2 0 7 14 29 44 52 67 75 90 97 111 123 127 136 136 141 138 139 138 128 123 109 101 86 77 68 52 55 63 78 86 
97 104 116 120 129 129 134 138 132 131 121 116 102 94 86 70 61 45 36 20 11 3 0 2 0 1 0 0 3 0 2 0 1 0 0 14 22 37 45 60 68 83 97 104 116 120 129 129 134 138 132 131 121 116 102 94 86 70 61 45 48 56 71 86 
92 99 111 115 124 131 129 133 127 126 116 111 104 89 81 65 56 40 31 22 6 2 0 1 0 0 3 0 2 0 1 0 0 3 0 9 17 32 40 55 70 78 92 99 111 115 124 131 129 133 127 126 116 111 104 89 81 65 56 40 43 58 66 81 
89 96 108 119 121 128 126 130 124 123 120 108 101 86 78 62 53 44 28 19 3 1 0 0 3 0 2 0 1 0 0 3 0 2 0 6 14 29 44 52 67 75 89 96 108 119 121 128 126 130 124 123 120 108 101 86 78 62 53 44 40 55 63 78 
87 101 106 117 119 126 124 128 129 121 118 106 99 84 76 67 51 42 26 17 1 0 3 0 2 0 1 0 0 3 0 2 0 1 0 4 19 27 42 50 65 73 87 101 106 117 119 126 124 128 129 121 118 106 99 84 76 67 51 42 38 53 61 76 
88 102 107 118 120 127 132 129 130 122 119 107 100 92 77 68 52 43 27 18 9 0 2 0 1 0 0 3 0 2 0 1 0 0 3 5 20 28 43 51 66 81 88 102 107 118 120 127 132 129 130 122 119 107 100 92 77 68 52 43 39 54 69 77 
91 105 110 121 130 130 255 253 255 252 255 255 254 255 80 71 55 46 37 21 12 0 1 0 0 3 0 2 0 1 0 0 3 0 2 8 23 31 46 61 69 84 91 105 110 121 130 130 135 132 133 125 122 117 103 95 80 71 55 46 49 57 72 80 
96 110 122 126 135 135 255 252 255 255 254 255 253 255 85 76 67 51 42 26 17 2 0 3 0 2 0 1 0 0 3 0 2 0 6 13 28 43 51 66 74 89 96 110 122 126 135 135 140 137 138 137 127 122 108 100 85 76 67 51 54 62 77 85 
110 117 129 133 142 142 255 255 254 255 253 255 252 255 99 83 74 58 49 33 24 16 1 2 0 1 0 0 3 0 2 0 1 0 13 27 35 50 58 73 81 96 110 117 129 133 142 142 147 151 145 144 134 129 115 107 99 83 74 58 61 69 84 99 
119 126 138 142 151 158 254 255 253 255 252 255 255 254 108 92 83 67 58 49 33 25 10 4 0 0 3 0 2 0 1 0 2 15 22 36 44 59 67 82 97 105 119 126 138 142 151 158 156 160 154 153 143 138 131 116 108 92 83 67 70 85 93 108 
129 136 148 159 161 168 253 255 252 255 255 254 255 253 118 102 93 84 68 59 43 35 20 14 9 0 2 0 1 0 0 8 12 25 32 46 54 69 84 92 107 115 129 136 148 159 161 168 166 170 164 163 160 148 141 126 118 102 93 84 80 95 103 118 
139 153 158 169 171 178 252 255 255 254 255 253 255 252 128 119 103 94 78 69 53 45 37 24 19 9 8 2 4 9 9 18 22 35 42 56 71 79 94 102 117 125 139 153 158 169 171 178 176 180 181 173 170 158 151 136 128 119 103 94 90 105 113 128 
150 164 169 180 182 189 255 254 255 253 255 252 255 255 139 130 114 105 89 80 71 56 48 35 30 20 19 20 15 20 20 29 33 46 60 67 82 90 105 113 128 143 150 164 169 180 182 189 194 191 192 184 181 169 162 154 139 130 114 105 101 116 131 139 
161 175 180 191 200 200 255 253 255 252 255 255 254 255 150 141 125 116 107 91 82 67 59 46 41 38 30 31 26 31 31 40 51 57 71 78 93 101 116 131 139 154 161 175 180 191 200 200 205 202 203 195 192 187 173 165 150 141 125 116 119 127 142 150 
172 186 198 202 211 211 216 213 214 213 203 198 184 176 161 152 143 127 118 102 93 78 70 64 52 49 41 42 37 42 49 51 62 68 82 89 104 119 127 142 150 165 172 186 198 202 211 211 216 213 214 213 203 198 184 176 161 152 143 127 130 138 153 161 
190 197 209 213 222 222 227 231 225 224 214 209 195 187 179 163 154 138 129 113 104 96 81 75 63 60 52 53 55 53 60 62 73 79 93 107 115 130 138 153 161 176 190 197 209 213 222 222 227 231 225 224 214 209 195 187 179 163 154 138 141 149 164 179 
201 208 220 224 233 240 238 242 236 235 225 220 213 198 190 174 165 149 140 131 115 107 92 86 74 71 70 64 66 64 71 73 84 97 104 118 126 141 149 164 179 187 201 208 220 224 233 240 238 242 236 235 225 220 213 198 190 174 165 149 152 167 175 190 
212 219 231 242 244 251 249 253 247 246 243 231 224 209 201 185 176 167 151 142 126 118 103 97 92 82 81 75 77 75 82 91 95 108 115 129 137 152 167 175 190 198 212 219 231 242 244 251 249 253 247 246 243 231 224 209 201 185 176 167 163 178 186 201 
222 236 241 252 253 255 252 255 255 254 253 241 234 219 211 202 186 177 161 152 136 128 120 107 102 92 91 85 87 92 92 101 105 118 125 139 154 162 177 185 200 208 222 236 241 252 253 255 252 255 255 254 253 241 234 219 211 202 186 177 173 188 196 211 
232 246 251 255 252 255 255 254 255 253 255 251 244 236 221 212 196 187 171 162 153 138 130 117 112 102 101 102 97 102 102 111 115 128 142 149 164 172 187 195 210 225 232 246 251 255 252 255 255 254 255 253 255 251 244 236 221 212 196 187 183 198 213 221 
240 254 252 255 255 254 255 253 255 252 255 255 252 244 229 220 204 195 186 170 161 146 138 125 120 117 109 110 105 110 110 119 130 136 150 157 172 180 195 210 218 233 240 254 252 255 255 254 255 253 255 252 255 255 252 244 229 220 204 195 198 206 221 229 
247 255 255 254 255 253 255 252 255 255 254 255 253 251 236 227 218 202 193 177 168 153 145 139 127 124 116 117 112 117 124 126 137 143 157 164 179 194 202 217 225 240 247 255 255 254 255 253 255 252 255 255 254 255 253 251 236 227 218 202 205 213 228 236 
255 254 255 253 255 252 255 255 254 255 253 255 252 255 248 232 223 207 198 182 173 165 150 144 132 129 121 122 124 122 129 131 142 148 162 176 184 199 207 222 230 245 255 254 255 253 255 252 255 255 254 255 253 255 252 255 248 232 223 207 210 218 233 248 
255 253 255 252 255 255 254 255 253 255 252 255 255 254 251 235 226 210 201 192 176 168 153 147 135 132 131 125 127 125 132 134 145 158 165 179 187 202 210 225 240 248 255 253 255 252 255 255 254 255 253 255 252 255 255 254 251 235 226 210 213 228 236 251 
255 252 255 255 254 255 253 255 252 255 255 254 255 253 252 236 227 218 202 193 177 169 154 148 143 133 132 126 128 126 133 142 146 159 166 180 188 203 218 226 241 249 255 252 255 255 254 255 253 255 252 255 255 254 255 253 252 236 227 218 214 229 237 252 
255 255 254 255 253 255 252 255 255 254 255 253 255 252 252 243 227 218 202 193 177 169 161 148 143 133 132 126 128 133 133 142 146 159 166 180 195 203 218 226 241 249 255 255 254 255 253 255 252 255 255 254 255 253 255 252 252 243 227 218 214 229 237 252 
254 255 253 255 252 255 255 254 255 253 255 252 255 255 249 240 224 215 199 190 181 166 158 145 140 130 129 130 125 130 130 139 143 156 170 177 192 200 215 223 238 253 254 255 253 255 252 255 255 254 255 253 255 252 255 255 249 240 224 215 211 226 241 249 
253 255 252 255 255 254 255 253 255 252 255 255 254 255 244 235 219 210 201 185 176 161 153 140 135 132 124 125 120 125 125 134 145 151 165 172 187 195 210 225 233 248 253 255 252 255 255 254 255 253 255 252 255 255 254 255 244 235 219 210 213 221 236 244 
248 255 255 254 255 253 255 252 255 255 254 255 253 252 237 228 219 203 194 178 169 154 146 140 128 125 117 118 113 118 125 127 138 144 158 165 180 195 203 218 226 241 248 255 255 254 255 253 255 252 255 255 254 255 253 252 237 228 219 203 206 214 229 237 
246 253 255 253 255 252 255 255 254 255 253 255 251 243 235 219 210 194 185 169 160 152 137 131 119 116 108 109 111 109 116 118 129 135 149 163 171 186 194 209 217 232 246 253 255 253 255 252 255 255 254 255 253 255 251 243 235 219 210 194 197 205 220 235 
235 242 254 252 255 255 254 255 253 255 252 254 247 232 224 208 199 183 174 165 149 141 126 120 108 105 104 98 100 98 105 107 118 131 138 152 160 175 183 198 213 221 235 242 254 252 255 255 254 255 253 255 252 254 247 232 224 208 199 183 186 201 209 224 
223 230 242 253 254 255 253 255 252 255 254 242 235 220 212 196 187 178 162 153 137 129 114 108 103 93 92 86 88 86 93 102 106 119 126 140 148 163 178 186 201 209 223 230 242 253 254 255 253 255 252 255 254 242 235 220 212 196 187 178 174 189 197 212 
211 225 230 241 243 250 248 252 253 245 242 230 223 208 200 191 175 166 150 141 125 117 109 96 91 81 80 74 76 81 81 90 94 107 114 128 143 151 166 174 189 197 211 225 230 241 243 250 248 252 253 245 242 230 223 208 200 191 175 166 162 177 185 200 
198 212 217 228 230 237 242 239 240 232 229 217 210 202 187 178 162 153 137 128 119 104 96 83 78 68 67 68 63 68 68 77 81 94 108 115 130 138 153 161 176 191 198 212 217 228 230 237 242 239 240 232 229 217 210 202 187 178 162 153 149 164 179 187 
185 199 204 215 224 224 229 226 227 219 216 211 197 189 174 165 149 140 131 115 106 91 83 70 65 62 54 55 50 55 55 64 75 81 95 102 117 125 140 155 163 178 185 199 204 215 224 224 229 226 227 219 216 211 197 189 174 165 149 140 143 151 166 174 
172 186 198 202 211 211 216 213 214 213 203 198 184 176 161 152 143 127 118 102 93 78 70 64 52 49 41 42 37 42 49 51 62 68 82 89 104 119 127 142 150 165 172 186 198 202 211 211 216 213 214 213 203 198 184 176 161 152 143 127 130 138 153 161 
166 173 185 189 198 198 203 207 201 200 190 185 171 163 155 139 130 114 105 89 80 72 57 51 39 36 28 29 31 29 36 38 49 55 69 83 91 106 114 129 137 152 166 173 185 189 198 198 203 207 201 200 190 185 171 163 155 139 130 114 117 125 140 155 
153 160 172 176 185 192 190 194 188 187 177 172 165 150 142 126 117 101 92 83 67 59 44 38 26 23 22 16 18 16 23 25 36 49 56 70 78 93 101 116 131 139 153 160 172 176 185 192 190 194 188 187 177 172 165 150 142 126 117 101 104 119 127 142 
140 147 159 170 172 179 177 181 175 174 171 159 152 137 129 113 104 95 79 70 54 46 31 25 20 10 9 3 5 3 10 19 199 202 198 201 197 200 95 103 118 126 140 147 159 170 172 179 177 181 175 174 171 159 152 137 129 113 104 95 91 106 114 129 
128 142 147 158 160 167 165 169 170 162 159 147 140 125 117 108 92 83 67 58 42 34 26 13 8 0 1 0 0 3 0 7 198 201 197 200 203 199 83 91 106 114 128 142 147 158 160 167 165 169 170 162 159 147 140 125 117 108 92 83 79 94 102 117 
116 130 135 146 148 155 160 157 158 150 147 135 128 120 105 96 80 71 55 46 37 22 14 1 1 0 0 3 0 2 0 1 197 200 203 199 202 198 71 79 94 109 116 130 135 146 148 155 160 157 158 150 147 135 128 120 105 96 80 71 67 82 97 105 
106 120 125 136 145 145 150 147 148 140 137 132 118 110 95 86 70 61 52 36 27 12 4 0 0 3 0 2 0 1 0 0 203 199 202 198 201 197 61 76 84 99 106 120 125 136 145 145 150 147 148 140 137 132 118 110 95 86 70 61 64 72 87 95 
97 111 123 127 136 136 141 138 139 138 128 123 109 101 86 77 68 52 43 27 18 3 0 3 0 2 0 1 0 0 3 0 202 198 201 197 200 203 52 67 75 90 97 111 123 127 136 136 141 138 139 138 128 123 109 101 86 77 68 52 55 63 78 86 
97 104 116 120 129 129 134 138 132 131 121 116 102 94 86 70 61 45 36 20 11 3 0 2 0 1 0 0 3 0 2 0 201 197 200 203 199 202 45 60 68 83 97 104 116 120 129 129 134 138 132 131 121 116 102 94 86 70 61 45 48 56 71 86 
92 99 111 115 124 131 129 133 127 126 116 111 104 89 81 65 56 40 31 22 6 2 0 1 0 0 3 0 2 0 1 0 0 3 0 9 17 32 40 55 70 78 92 99 111 115 124 131 129 133 127 126 116 111 104 89 81 65 56 40 43 58 66 81 
89 96 108 119 121 128 126 130 124 123 120 108 101 86 78 62 53 44 28 19 3 1 0 0 3 0 2 0 1 0 0 3 0 2 0 6 14 29 44 52 67 75 89 96 108 119 121 128 126 130 124 123 120 108 101 86 78 62 53 44 40 55 63 78 
87 101 106 117 119 126 124 128 129 121 118 106 99 84 76 67 51 42 26 17 1 0 3 0 2 0 1 0 0 3 0 2 0 1 0 4 19 27 42 50 65 73 87 101 106 117 119 126 124 128 129 121 118 106 99 84 76 67 51 42 38 53 61 76 
254 255 253 255 252 255 255 254 255 253 255 252 255 255 251 242 226 217 201 192 183 168 160 147 142 132 131 132 127 132 132 141 145 158 172 179 194 202 217 225 240 255 254 255 253 255 252 255 255 254 255 253 255 252 255 255 251 242 226 217 213 228 243 251 
253 255 252 255 255 254 255 253 255 252 255 255 254 255 248 239 223 214 205 189 180 165 157 144 139 136 128 129 124 129 129 138 149 155 169 176 191 199 214 229 237 252 253 255 252 255 255 254 255 253 255 252 255 255 254 255 248 239 223 214 217 225 240 248 
